<svg width="240" height="160" viewBox="0 0 240 160" fill="none" xmlns="http://www.w3.org/2000/svg">
<g clip-path="url(#clip0_10_134)">
<g clip-path="url(#clip1_10_134)">
<g clip-path="url(#clip2_10_134)">
<path d="M129.505 0.384766H124.316V5.6565H129.505V0.384766Z" fill="#FFC11A"/>
<path d="M77.6117 0.384766H72.4224V5.6565H77.6117V0.384766Z" fill="#FFC11A"/>
<path d="M87.9899 0.384766H82.8005V5.6565H87.9899V0.384766Z" fill="#FFC11A"/>
<path d="M98.3699 0.384766H93.1804V5.6565H98.3699V0.384766Z" fill="#FFC11A"/>
<path d="M108.748 0.384766H103.558V5.6565H108.748V0.384766Z" fill="#FFC11A"/>
<path d="M119.126 0.384766H113.937V5.6565H119.126V0.384766Z" fill="#FFC11A"/>
<path d="M67.2331 10.9233H62.0438V16.1951H67.2331V10.9233Z" fill="#FFC11A"/>
<path d="M67.2331 21.4761H62.0438V26.7477H67.2331V21.4761Z" fill="#FFC11A"/>
<path d="M67.2331 32.0151H62.0438V37.2868H67.2331V32.0151Z" fill="#FFC11A"/>
<path d="M67.2331 42.5535H62.0438V47.8251H67.2331V42.5535Z" fill="#FFC11A"/>
<path d="M185.532 54.8909L180.862 69.9154L185.792 71.4969L190.462 56.4724L185.532 54.8909Z" fill="#FFC11A"/>
<path d="M194.372 -2.25342H189.183V8.29006H194.372V-2.25342Z" fill="#FFC11A"/>
<path d="M194.372 18.8379H189.183V29.3814H194.372V18.8379Z" fill="#FFC11A"/>
<path d="M207.347 10.9233H196.968V16.1951H207.347V10.9233Z" fill="#FFC11A"/>
<path d="M186.589 10.9233H176.21V16.1951H186.589V10.9233Z" fill="#FFC11A"/>
<path d="M163.236 142.717H80.2064C78.142 142.717 76.1621 141.884 74.7023 140.401C73.2424 138.918 72.4224 136.907 72.4224 134.809V18.831C72.4224 16.7337 73.2424 14.7224 74.7023 13.2395C76.1621 11.7565 78.142 10.9233 80.2064 10.9233H163.236C165.301 10.9233 167.281 11.7565 168.741 13.2395C170.2 14.7224 171.02 16.7337 171.02 18.831V44.6099H165.831V18.831C165.831 18.1319 165.558 17.4615 165.071 16.9672C164.585 16.4728 163.925 16.1951 163.236 16.1951H80.2064C79.5183 16.1951 78.8583 16.4728 78.3717 16.9672C77.8851 17.4615 77.6117 18.1319 77.6117 18.831V134.809C77.6117 135.508 77.8851 136.179 78.3717 136.673C78.8583 137.167 79.5183 137.445 80.2064 137.445H163.236C163.925 137.445 164.585 137.167 165.071 136.673C165.558 136.179 165.831 135.508 165.831 134.809V82.0919H171.02V134.809C171.02 136.907 170.2 138.918 168.741 140.401C167.281 141.884 165.301 142.717 163.236 142.717Z" fill="#FFC11A"/>
<path d="M171.02 71.5593H165.831V76.831H171.02V71.5593Z" fill="#FFC11A"/>
<path d="M67.2331 53.1064H62.0438V58.3781H67.2331V53.1064Z" fill="#FFC11A"/>
<path d="M67.2331 63.6448H62.0438V68.9164H67.2331V63.6448Z" fill="#FFC11A"/>
<path d="M67.2331 74.1836H62.0438V79.4552H67.2331V74.1836Z" fill="#FFC11A"/>
<path d="M67.2331 84.7356H62.0438V90.0075H67.2331V84.7356Z" fill="#FFC11A"/>
<path d="M67.2331 95.2742H62.0438V100.546H67.2331V95.2742Z" fill="#FFC11A"/>
<path d="M67.2331 0.384766H62.0438V5.6565H67.2331V0.384766Z" fill="#FFC11A"/>
<path d="M119.126 24.1006H85.3948V29.3722H119.126V24.1006Z" fill="#FFC11A"/>
<path d="M129.505 24.1006H124.316V29.3722H129.505V24.1006Z" fill="#FFC11A"/>
<path d="M139.884 24.1006H134.695V29.3722H139.884V24.1006Z" fill="#FFC11A"/>
<path d="M113.938 37.2773H85.3961V42.5492H113.938V37.2773Z" fill="#FFC11A"/>
<path d="M194.373 71.5547C193.335 71.5557 192.303 71.3957 191.312 71.0802L136.382 53.9207L125.147 38.3426L142.583 33.7827L197.435 50.9422C199.805 51.6898 201.832 53.2753 203.15 55.4111C204.468 57.5469 204.99 60.0917 204.619 62.5844C204.249 65.0769 203.012 67.3522 201.132 68.9979C199.253 70.6435 196.855 71.5505 194.373 71.5547ZM139.548 49.3868L192.842 66.0456C193.338 66.2021 193.854 66.282 194.373 66.2828C195.614 66.281 196.813 65.8274 197.753 65.0045C198.693 64.1818 199.311 63.044 199.496 61.7977C199.681 60.5514 199.421 59.2789 198.762 58.211C198.103 57.1431 197.089 56.3504 195.904 55.9766L142.48 39.2652L133.865 41.5057L139.548 49.3868Z" fill="#FFC11A"/>
<path d="M147.669 87.3601H95.775V92.632H147.669V87.3601Z" fill="#FFC11A"/>
<path d="M152.856 129.536H142.477C141.101 129.536 139.781 128.981 138.808 127.992C137.834 127.004 137.288 125.663 137.288 124.265V116.357H142.477V124.265H152.856V102.73C152.697 101.902 152.33 101.131 151.792 100.489C149.197 96.7727 145.565 91.5272 145.565 91.5272L145.279 91.1318L145.149 90.631C145.149 90.631 142.555 79.7714 141.335 75.4483C141.121 75.0313 140.79 74.6883 140.383 74.4629C139.976 74.2377 139.513 74.1403 139.052 74.1831H104.387C103.924 74.1463 103.459 74.2491 103.053 74.4789C102.647 74.7087 102.317 75.055 102.104 75.4748C100.936 79.5603 98.3153 90.4993 98.2893 90.631V91.1056L97.978 91.5272C97.978 91.5272 94.2937 96.7991 91.7508 100.489C91.2032 101.125 90.8355 101.899 90.6871 102.73V124.265H101.066C101.066 124.265 101.066 124.107 101.066 123.817V116.357H106.255V123.817C106.316 124.546 106.228 125.28 105.994 125.972C105.761 126.664 105.389 127.3 104.9 127.838C104.412 128.376 103.819 128.804 103.159 129.097C102.499 129.39 101.786 129.539 101.066 129.536H90.6871C89.3107 129.536 87.9908 128.981 87.0176 127.992C86.0444 127.004 85.4976 125.663 85.4976 124.265V102.73C85.5919 100.805 86.282 98.9603 87.4696 97.4578C89.5971 94.3476 92.6589 90.1829 93.4633 88.8651C94.0082 86.6246 96.058 77.7153 97.2256 73.9723C97.7411 72.4461 98.7254 71.1283 100.033 70.2125C101.341 69.2969 102.903 68.8316 104.491 68.8851H139.156C140.748 68.8249 142.317 69.2905 143.627 70.2125C144.936 71.1345 145.917 72.463 146.421 73.9987C147.511 77.9261 149.638 86.6508 150.157 88.8386C151.091 90.1565 154.049 94.3476 156.177 97.4842C157.368 98.9848 158.058 100.831 158.149 102.756V124.265C158.149 124.966 158.011 125.66 157.744 126.307C157.477 126.953 157.085 127.539 156.592 128.03C156.099 128.521 155.515 128.907 154.873 129.166C154.232 129.424 153.546 129.551 152.856 129.536Z" fill="#FFC11A"/>
<path d="M155.452 113.728H87.9907V119H155.452V113.728Z" fill="#FFC11A"/>
<path d="M98.3694 103.189H87.9907V108.461H98.3694V103.189Z" fill="#FFC11A"/>
<path d="M155.453 103.189H145.074V108.461H155.453V103.189Z" fill="#FFC11A"/>
<path d="M126.911 103.189H116.532V108.461H126.911V103.189Z" fill="#FFC11A"/>
<path opacity="0.15" d="M119.503 162.167C185.411 162.167 238.84 153.46 238.84 142.72C238.84 131.979 185.411 123.272 119.503 123.272C53.5944 123.272 0.165222 131.979 0.165222 142.72C0.165222 153.46 53.5944 162.167 119.503 162.167Z" fill="#FFC11A"/>
</g>
</g>
</g>
<defs>
<clipPath id="clip0_10_134">
<rect width="239.346" height="158.873" fill="white" transform="translate(0.165344 0.520752)"/>
</clipPath>
<clipPath id="clip1_10_134">
<rect width="239.346" height="158.873" fill="white" transform="translate(0.165344 0.520752)"/>
</clipPath>
<clipPath id="clip2_10_134">
<rect width="239.346" height="164.421" fill="white" transform="translate(0.165283 -2.25342)"/>
</clipPath>
</defs>
</svg>
