<svg width="241" height="160" viewBox="0 0 241 160" fill="none" xmlns="http://www.w3.org/2000/svg">
<g clip-path="url(#clip0_10_175)">
<g clip-path="url(#clip1_10_175)">
<g clip-path="url(#clip2_10_175)">
<path d="M79.8687 140.208C76.1357 140.208 72.4864 139.083 69.3826 136.977C66.2787 134.87 63.8595 131.875 62.4308 128.372C61.0024 124.868 60.6285 121.013 61.3568 117.293C62.0851 113.574 63.8828 110.157 66.5225 107.476C69.1621 104.794 72.5252 102.968 76.1864 102.228C79.8478 101.488 83.6428 101.868 87.0916 103.32C90.5404 104.771 93.4883 107.228 95.5622 110.381C97.6363 113.535 98.7431 117.242 98.7431 121.034C98.7431 126.119 96.7545 130.996 93.215 134.592C89.6753 138.188 84.8745 140.208 79.8687 140.208ZM79.8687 107.338C77.2021 107.338 74.5957 108.141 72.3786 109.646C70.1615 111.151 68.4336 113.29 67.4133 115.793C66.3927 118.295 66.1258 121.049 66.646 123.706C67.1661 126.363 68.4501 128.803 70.3357 130.718C72.2211 132.634 74.6232 133.938 77.2385 134.467C79.8537 134.995 82.5645 134.724 85.028 133.687C87.4914 132.651 89.5971 130.895 91.0784 128.643C92.5597 126.391 93.3504 123.743 93.3504 121.034C93.3504 117.402 91.93 113.918 89.4018 111.35C86.8733 108.781 83.4443 107.338 79.8687 107.338Z" fill="#FFC11A"/>
<path d="M160.759 140.208C157.026 140.208 153.377 139.083 150.273 136.977C147.169 134.87 144.75 131.875 143.322 128.372C141.893 124.868 141.519 121.013 142.247 117.293C142.976 113.574 144.773 110.157 147.413 107.476C150.053 104.794 153.416 102.968 157.077 102.228C160.738 101.488 164.533 101.868 167.982 103.32C171.431 104.771 174.379 107.228 176.453 110.381C178.527 113.535 179.634 117.242 179.634 121.034C179.634 126.119 177.645 130.996 174.105 134.592C170.566 138.188 165.765 140.208 160.759 140.208ZM160.759 107.338C158.093 107.338 155.486 108.141 153.269 109.646C151.052 111.151 149.324 113.29 148.304 115.793C147.283 118.295 147.016 121.049 147.536 123.706C148.057 126.363 149.341 128.803 151.226 130.718C153.112 132.634 155.514 133.938 158.129 134.467C160.744 134.995 163.455 134.724 165.918 133.687C168.382 132.651 170.488 130.895 171.969 128.643C173.45 126.391 174.241 123.743 174.241 121.034C174.241 117.402 172.821 113.918 170.292 111.35C167.764 108.781 164.335 107.338 160.759 107.338Z" fill="#FFC11A"/>
<path d="M82.5645 118.301H77.1718V123.779H82.5645V118.301Z" fill="#FFC11A"/>
<path d="M163.456 118.301H158.064V123.779H163.456V118.301Z" fill="#FFC11A"/>
<path d="M187.724 126.513H176.722V121.035H187.724C188.811 121.136 189.906 120.993 190.933 120.615C191.96 120.238 192.892 119.636 193.664 118.852C194.436 118.068 195.029 117.121 195.4 116.078C195.771 115.035 195.912 113.922 195.813 112.817C195.813 99.4502 187.103 74.4691 166.153 74.4691H151.377L133.041 51.1863C132.032 49.9051 130.751 48.8707 129.295 48.1595C127.839 47.4483 126.244 47.0786 124.629 47.0776H80.2198C78.7234 47.078 77.2435 47.395 75.8739 48.008C74.5046 48.6211 73.2757 49.5169 72.2657 50.6384C65.0704 58.4043 58.6237 66.852 53.0136 75.8661C51.209 78.9159 50.2754 82.4156 50.3172 85.9736V112.817C50.3172 114.997 51.1694 117.087 52.6865 118.628C54.2035 120.169 56.261 121.035 58.4063 121.035H64.0146V126.513H58.2985C54.723 126.513 51.2937 125.07 48.7655 122.502C46.237 119.933 44.8166 116.45 44.8166 112.817V85.9736C44.7917 81.3862 46.0444 76.8853 48.4298 72.9899C54.2171 63.6717 60.8718 54.9394 68.302 46.9133C69.8261 45.2479 71.6699 43.9172 73.7196 43.0033C75.7692 42.0893 77.9814 41.6116 80.2198 41.5994H124.629C127.052 41.6008 129.444 42.1555 131.629 43.2221C133.813 44.2889 135.733 45.8406 137.248 47.7624L153.965 68.9908H166.153C189.018 68.9908 201.205 94.4376 201.205 112.817C201.311 114.644 201.035 116.473 200.395 118.183C199.755 119.894 198.766 121.447 197.492 122.741C196.218 124.035 194.689 125.04 193.005 125.69C191.322 126.34 189.522 126.621 187.724 126.513Z" fill="#FFC11A"/>
<path d="M144.797 121.032H128.404V126.51H144.797V121.032Z" fill="#FFC11A"/>
<path d="M106.832 121.032H95.8312V126.51H106.832V121.032Z" fill="#FFC11A"/>
<path d="M120.314 134.729H50.2092V140.207H120.314V134.729Z" fill="#FFC11A"/>
<path d="M190.42 134.729H133.796V140.207H190.42V134.729Z" fill="#FFC11A"/>
<path d="M125.708 129.256H109.53C108.779 129.269 108.034 129.121 107.342 128.824C106.65 128.527 106.027 128.086 105.513 127.53C105.022 127.009 104.645 126.388 104.408 125.708C104.171 125.028 104.079 124.305 104.137 123.586L105.701 102.001L111.094 102.412L109.557 123.97L125.735 123.778L120.531 44.534L125.924 44.178L131.128 123.613C131.187 124.332 131.094 125.056 130.858 125.736C130.62 126.416 130.244 127.037 129.753 127.558C129.233 128.112 128.604 128.55 127.908 128.842C127.211 129.135 126.462 129.276 125.708 129.256Z" fill="#FFC11A"/>
<path d="M106.389 90.9404L106.074 95.9705L111.456 96.3183L111.771 91.2884L106.389 90.9404Z" fill="#FFC11A"/>
<path d="M109.25 44.1101L106.67 84.757L112.052 85.1095L114.632 44.4627L109.25 44.1101Z" fill="#FFC11A"/>
<path d="M110.122 77.2075H76.0941C74.2324 77.2003 72.4494 76.444 71.1354 75.1041C69.8214 73.7641 69.0837 71.9497 69.0837 70.0585C69.0792 68.9026 69.3572 67.7638 69.8926 66.744L75.8785 55.1848L80.6511 57.7321L74.6651 69.3187C74.5372 69.5432 74.4718 69.799 74.4764 70.0585C74.4728 70.2765 74.512 70.4931 74.5917 70.6957C74.6713 70.8984 74.79 71.0826 74.9406 71.2383C75.0911 71.3938 75.2707 71.5173 75.4688 71.6016C75.6667 71.6858 75.8795 71.7293 76.0941 71.7293H110.122V77.2075Z" fill="#FFC11A"/>
<path d="M139.186 71.7363H125.111V77.2147H139.186V71.7363Z" fill="#FFC11A"/>
<path d="M58.2976 104.605H47.5123V110.083H58.2976V104.605Z" fill="#FFC11A"/>
<path d="M197.699 101.86H182.33V107.338H197.699V101.86Z" fill="#FFC11A"/>
<path d="M194.411 96.3782H169.982C169.27 96.3788 168.566 96.2362 167.909 95.9588C167.251 95.6815 166.655 95.2748 166.153 94.7621L162.324 90.9C161.357 89.8386 160.801 88.4565 160.76 87.0103C160.768 85.1382 161.503 83.3449 162.806 82.021C164.109 80.6974 165.874 79.9506 167.717 79.9434H187.94V85.4216H167.717C167.512 85.4216 167.308 85.4626 167.119 85.5425C166.929 85.6223 166.756 85.7394 166.611 85.887C166.466 86.0344 166.351 86.2096 166.272 86.4023C166.194 86.5952 166.153 86.8017 166.153 87.0103L169.982 90.9H194.411V96.3782Z" fill="#FFC11A"/>
<path d="M127.783 45.2656L122.714 43.4303C122.908 42.8385 123.008 42.219 123.01 41.5951C123.01 40.1422 122.442 38.7487 121.431 37.7213C120.419 36.694 119.048 36.1167 117.618 36.1167C116.187 36.1167 114.816 36.694 113.805 37.7213C112.793 38.7487 112.225 40.1422 112.225 41.5951C112.227 42.21 112.327 42.8206 112.522 43.4029L107.452 45.2382C106.927 43.7332 106.732 42.1295 106.881 40.5398C107.029 38.9501 107.519 37.4126 108.313 36.0351C109.108 34.6575 110.19 33.473 111.483 32.5647C112.776 31.6564 114.249 31.0464 115.798 30.7769C117.347 30.5076 118.936 30.5854 120.453 31.0052C121.969 31.4249 123.377 32.1763 124.578 33.2067C125.779 34.2373 126.743 35.5222 127.404 36.9711C128.065 38.4201 128.406 39.9981 128.403 41.5951C128.401 42.8454 128.191 44.0861 127.783 45.2656Z" fill="#FFC11A"/>
<path d="M86.3137 46.5341C83.5956 44.4631 81.5881 41.5751 80.5764 38.2799C79.5645 34.9848 79.5997 31.4497 80.6769 28.1759C81.754 24.9023 83.8186 22.0563 86.5775 20.0414C89.3365 18.0266 92.6497 16.9454 96.0476 16.9512C103.948 16.9512 112.226 22.183 119.749 31.6878L115.488 35.0843C109.26 27.0312 102.168 22.4296 96.0476 22.4296C93.7839 22.4296 91.5777 23.153 89.7411 24.4976C87.9048 25.8424 86.5315 27.7398 85.8157 29.9213C85.0998 32.103 85.0777 34.458 85.7527 36.653C86.4277 38.8481 87.7654 40.7717 89.5762 42.1515L86.3137 46.5341Z" fill="#FFC11A"/>
<path d="M139.191 49.821H132.72V44.3428H139.191C142.052 44.3428 144.795 43.1883 146.818 41.1336C148.84 39.0788 149.977 36.2919 149.977 33.3862C149.977 30.4802 148.84 27.6934 146.818 25.6386C144.795 23.5838 142.052 22.4295 139.191 22.4295C133.071 22.4295 125.979 27.0312 119.751 35.0843L115.49 31.6878C123.013 22.183 131.291 16.9512 139.191 16.9512C143.482 16.9512 147.597 18.6827 150.631 21.7648C153.665 24.8469 155.37 29.0273 155.37 33.3862C155.37 37.7449 153.665 41.9252 150.631 45.0074C147.597 48.0895 143.482 49.821 139.191 49.821Z" fill="#FFC11A"/>
<path d="M182.33 0.51001H176.937V11.4666H182.33V0.51001Z" fill="#FFC11A"/>
<path d="M182.33 22.4131H176.937V33.3697H182.33V22.4131Z" fill="#FFC11A"/>
<path d="M195.813 14.2063H185.027V19.6846H195.813V14.2063Z" fill="#FFC11A"/>
<path d="M174.242 14.2063H163.457V19.6846H174.242V14.2063Z" fill="#FFC11A"/>
<path opacity="0.15" d="M119.85 159.404C185.666 159.404 239.02 150.709 239.02 139.983C239.02 129.258 185.666 120.563 119.85 120.563C54.0337 120.563 0.679321 129.258 0.679321 139.983C0.679321 150.709 54.0337 159.404 119.85 159.404Z" fill="#FFC11A"/>
</g>
</g>
</g>
<defs>
<clipPath id="clip0_10_175">
<rect width="239.346" height="158.873" fill="white" transform="translate(0.679077 0.520752)"/>
</clipPath>
<clipPath id="clip1_10_175">
<rect width="239.346" height="158.873" fill="white" transform="translate(0.679077 0.520752)"/>
</clipPath>
<clipPath id="clip2_10_175">
<rect width="239.346" height="158.894" fill="white" transform="translate(0.679199 0.510254)"/>
</clipPath>
</defs>
</svg>
