<svg width="241" height="160" viewBox="0 0 241 160" fill="none" xmlns="http://www.w3.org/2000/svg">
<g clip-path="url(#clip0_10_103)">
<g clip-path="url(#clip1_10_103)">
<g clip-path="url(#clip2_10_103)">
<path d="M94.4581 139.938C91.9665 139.938 89.5306 139.187 87.4588 137.781C85.3869 136.374 83.772 134.375 82.8185 132.037C81.8648 129.698 81.6154 127.125 82.1015 124.642C82.5876 122.159 83.7876 119.879 85.5495 118.089C87.3115 116.299 89.5564 115.08 92.0002 114.586C94.4442 114.092 96.9774 114.346 99.2796 115.315C101.582 116.283 103.549 117.924 104.934 120.028C106.318 122.133 107.057 124.608 107.057 127.139C107.057 130.533 105.729 133.789 103.367 136.189C101.004 138.589 97.7996 139.938 94.4581 139.938ZM94.4581 119.46C92.9631 119.46 91.5017 119.91 90.2585 120.754C89.0153 121.598 88.0465 122.797 87.4743 124.2C86.9021 125.603 86.7526 127.147 87.0443 128.637C87.3358 130.127 88.0559 131.495 89.1129 132.569C90.1701 133.643 91.5172 134.374 92.9834 134.671C94.4497 134.967 95.9697 134.815 97.3509 134.234C98.7322 133.652 99.913 132.668 100.744 131.405C101.574 130.143 102.017 128.658 102.017 127.139C102.017 125.102 101.221 123.149 99.8033 121.709C98.3858 120.269 96.4631 119.46 94.4581 119.46Z" fill="#FFC11A"/>
<path d="M144.853 139.938C142.361 139.938 139.926 139.187 137.854 137.781C135.782 136.374 134.167 134.375 133.213 132.037C132.26 129.698 132.01 127.125 132.497 124.642C132.983 122.159 134.183 119.879 135.945 118.089C137.707 116.299 139.951 115.08 142.395 114.586C144.839 114.092 147.373 114.346 149.675 115.315C151.977 116.283 153.944 117.924 155.329 120.028C156.713 122.133 157.452 124.608 157.452 127.139C157.452 130.533 156.125 133.789 153.762 136.189C151.399 138.589 148.195 139.938 144.853 139.938ZM144.853 119.46C143.358 119.46 141.897 119.91 140.654 120.754C139.411 121.598 138.442 122.797 137.87 124.2C137.297 125.603 137.148 127.147 137.439 128.637C137.731 130.127 138.451 131.495 139.508 132.569C140.565 133.643 141.912 134.374 143.379 134.671C144.845 134.967 146.365 134.815 147.746 134.234C149.127 133.652 150.308 132.668 151.138 131.405C151.969 130.143 152.413 128.658 152.413 127.139C152.413 125.102 151.616 123.149 150.199 121.709C148.781 120.269 146.858 119.46 144.853 119.46Z" fill="#FFC11A"/>
<path d="M185.169 134.812H180.13V139.931H185.169V134.812Z" fill="#FFC11A"/>
<path d="M175.09 134.812H170.05V139.931H175.09V134.812Z" fill="#FFC11A"/>
<path d="M165.011 134.812H71.7805V139.931H165.011V134.812Z" fill="#FFC11A"/>
<path d="M66.7402 134.812H61.7008V139.931H66.7402V134.812Z" fill="#FFC11A"/>
<path d="M144.852 119.46H89.418C87.1311 119.459 84.9126 118.668 83.1267 117.217C81.341 115.766 80.0941 113.741 79.5909 111.474L64.2206 42.1052C64.0925 41.5277 63.7715 41.0132 63.3121 40.6491C62.8526 40.2851 62.2833 40.0941 61.7007 40.1086H49.1021V34.989H61.7007C63.418 34.987 65.0849 35.579 66.4268 36.6677C67.7688 37.7564 68.7057 39.277 69.0836 40.9788L84.5045 110.348C84.7561 111.481 85.3794 112.493 86.2723 113.219C87.1653 113.945 88.2745 114.341 89.418 114.341H144.852V119.46Z" fill="#FFC11A"/>
<path d="M147.374 106.657H91.9391V101.538H147.374C148.433 101.539 149.466 101.2 150.325 100.571C151.185 99.9413 151.827 99.0527 152.161 98.031L165.012 58.8157C165.05 58.5526 165.05 58.2852 165.012 58.0221C165.012 57.3434 164.746 56.6922 164.274 56.2121C163.801 55.7322 163.16 55.4624 162.492 55.4624H69.2615V50.343H162.492C163.688 50.3426 164.867 50.6304 165.932 51.183C166.998 51.7355 167.918 52.537 168.62 53.5214C169.321 54.506 169.782 55.6455 169.965 56.8461C170.148 58.0467 170.048 59.2745 169.673 60.4283L156.949 99.6181C156.285 101.666 155.003 103.449 153.283 104.713C151.564 105.977 149.496 106.658 147.374 106.657Z" fill="#FFC11A"/>
<path d="M165.313 63.1492H124.695V68.2687H165.313V63.1492Z" fill="#FFC11A"/>
<path d="M119.656 63.1492H114.617V68.2687H119.656V63.1492Z" fill="#FFC11A"/>
<path d="M109.551 63.1492H104.537V68.2687H109.551V63.1492Z" fill="#FFC11A"/>
<path d="M132.512 32.042L103.178 50.7714L105.86 55.1058L135.194 36.3764L132.512 32.042Z" fill="#FFC11A"/>
<path d="M114.866 37.155L110.674 39.9963L114.856 46.3629L119.048 43.5216L114.866 37.155Z" fill="#FFC11A"/>
<path d="M89.4183 52.9091H84.3788V47.7896C84.3867 45.9511 84.828 44.1415 85.6651 42.5115C86.5024 40.8817 87.7116 39.4792 89.1915 38.4209L117.135 18.711C118.765 17.6417 120.663 17.0729 122.603 17.0727C123.453 17.0847 124.299 17.1964 125.123 17.4055C129.306 18.4294 139.813 21.7827 141.098 22.1922C144.827 19.8372 147.549 18.0454 150.673 15.9976L153.193 14.2826C155.354 12.8008 157.893 11.9913 160.5 11.9532C162.235 11.8926 163.961 12.2432 165.54 12.9772C170.426 15.7353 174.712 19.4709 178.139 23.9585C179.353 25.5482 180.018 27.5006 180.028 29.5131C179.897 32.0171 178.866 34.3852 177.131 36.1684C174.46 38.7282 169.571 43.0798 166.094 46.177L162.819 42.3118C166.321 39.24 171.033 35.0676 173.603 32.508C174.379 31.693 174.866 30.6397 174.989 29.5131C174.991 28.6578 174.707 27.8273 174.183 27.1581C171.261 23.2691 167.603 20.014 163.423 17.5847C162.203 17.1464 160.897 17.0083 159.614 17.1818C158.33 17.3554 157.106 17.8356 156.04 18.583L153.521 20.2723C150.295 22.397 147.498 24.24 143.618 26.6974C142.477 27.3249 141.141 27.4807 139.889 27.1326C139.687 27.1326 128.247 23.4209 124.065 22.397C123.605 22.2673 123.131 22.1986 122.654 22.1922C121.703 22.1975 120.772 22.4629 119.958 22.9602L91.938 42.6702C91.1627 43.2729 90.533 44.0472 90.0963 44.9344C89.6597 45.8214 89.4279 46.7978 89.4183 47.7896V52.9091Z" fill="#FFC11A"/>
<path d="M159.974 34.9895C159.234 34.9907 158.502 34.8262 157.832 34.5077C157.161 34.1892 156.568 33.7244 156.094 33.1465L153.801 30.5867L157.454 27.1312L159.974 29.6909C163.149 27.1312 170.859 19.4519 170.935 19.4519L174.437 23.138C174.085 23.4708 166.097 31.2266 162.922 33.8376C162.107 34.5681 161.061 34.9768 159.974 34.9895Z" fill="#FFC11A"/>
<path d="M168.338 56.0539L164.155 53.1871C164.594 52.5224 164.874 51.7627 164.972 50.9683C165.07 50.1738 164.984 49.3671 164.719 48.6131C164.454 47.8589 164.02 47.1785 163.449 46.6259C162.879 46.0736 162.189 45.6648 161.435 45.4325C160.68 45.2001 159.883 45.1508 159.107 45.288C158.33 45.4255 157.597 45.7461 156.964 46.2239C156.332 46.7016 155.819 47.3235 155.466 48.0393C155.113 48.7551 154.93 49.5451 154.933 50.3456C154.936 50.9307 155.038 51.5108 155.235 52.0607L150.473 53.7502C150.091 52.6568 149.895 51.5057 149.893 50.3456C149.893 47.6301 150.955 45.0258 152.845 43.1057C154.735 41.1854 157.299 40.1067 159.972 40.1067C162.645 40.1067 165.209 41.1854 167.099 43.1057C168.989 45.0258 170.051 47.6301 170.051 50.3456C170.061 52.3807 169.464 54.3711 168.338 56.0539Z" fill="#FFC11A"/>
<path d="M61.7021 -0.848145H56.6627V9.39083H61.7021V-0.848145Z" fill="#FFC11A"/>
<path d="M61.7021 19.6226H56.6627V29.8617H61.7021V19.6226Z" fill="#FFC11A"/>
<path d="M74.3013 11.9465H64.2223V17.066H74.3013V11.9465Z" fill="#FFC11A"/>
<path d="M54.1418 11.9465H44.0629V17.066H54.1418V11.9465Z" fill="#FFC11A"/>
<path d="M182.648 93.8687H177.609V104.108H182.648V93.8687Z" fill="#FFC11A"/>
<path d="M182.65 114.34H177.611V124.579H182.65V114.34Z" fill="#FFC11A"/>
<path d="M195.248 106.664H185.169V111.783H195.248V106.664Z" fill="#FFC11A"/>
<path d="M175.091 106.664H165.012V111.783H175.091V106.664Z" fill="#FFC11A"/>
<path opacity="0.15" d="M120.476 160.762C185.962 160.762 239.049 152.11 239.049 141.439C239.049 130.767 185.962 122.116 120.476 122.116C54.9906 122.116 1.90396 130.767 1.90396 141.439C1.90396 152.11 54.9906 160.762 120.476 160.762Z" fill="#FFC11A"/>
</g>
</g>
</g>
<defs>
<clipPath id="clip0_10_103">
<rect width="239.346" height="158.873" fill="white" transform="translate(0.668701 0.520752)"/>
</clipPath>
<clipPath id="clip1_10_103">
<rect width="239.346" height="158.873" fill="white" transform="translate(0.668701 0.520752)"/>
</clipPath>
<clipPath id="clip2_10_103">
<rect width="239.346" height="161.61" fill="white" transform="translate(0.668762 -0.848145)"/>
</clipPath>
</defs>
</svg>
