<svg width="112" height="112" viewBox="0 0 112 112" fill="none" xmlns="http://www.w3.org/2000/svg">
<path d="M68.2037 59.71L61.4113 63.413C58.6973 64.8913 55.5934 65.4967 52.5227 65.1468C49.452 64.7969 46.564 63.5087 44.252 61.4577L42.8497 60.214C34.8627 53.0577 39.0557 51.8257 46.03 51.765C52.7663 51.7067 59.4467 51.7137 66.7523 52.2527C73.7057 52.766 74.331 56.3757 68.206 59.7124L68.2037 59.71Z" stroke="#FFC11A" stroke-width="2.33333" stroke-linecap="round" stroke-linejoin="round"/>
<path d="M19.9501 65.6856L24.2621 69.4679M20.2488 46.3493C20.3398 46.8839 20.5466 47.3923 20.8547 47.8386C21.1629 48.2849 21.5649 48.6584 22.0326 48.9329C22.5004 49.2075 23.0225 49.3764 23.5624 49.4279C24.1023 49.4794 24.6469 49.4122 25.1581 49.2309C37.5294 46.3843 52.8198 40.4343 66.2318 35.6509M66.2318 35.6509C77.6744 31.1313 85.7571 29.7219 94.8478 35.8493C94.8478 35.8493 100.637 38.9829 99.6591 43.6333C100.689 45.419 101.305 47.4133 101.462 49.4689C101.618 51.5245 101.31 53.589 100.562 55.5099C100.042 56.4479 99.3535 57.2786 98.5298 57.9669C92.6813 62.8129 86.219 66.8659 79.3101 70.0209C78.7003 70.3149 78.124 70.6642 77.5811 71.0686C74.2131 73.6422 70.531 75.7765 66.6238 77.4199C62.7758 79.255 58.5891 80.2725 54.3281 80.4083C50.0671 80.544 45.8241 79.7951 41.8671 78.2086C38.7358 69.2509 36.2998 61.0539 29.8924 55.0876C27.3328 53.4799 24.2155 51.6903 24.7755 54.5253M66.2318 35.6509C55.6781 29.6916 41.6758 30.3939 26.3038 36.9389C25.1838 37.4266 24.1991 38.1849 23.4408 39.1439C22.2458 41.4859 21.1795 43.8912 20.2465 46.3493C15.9415 47.0913 13.9908 47.7423 12.6235 49.0746C11.7058 50.0519 10.9934 51.2031 10.5281 52.4603C10.39 54.0643 10.7432 55.6724 11.5408 57.0709C13.1695 60.2536 13.8438 60.9676 15.7175 64.1199C16.2145 64.8666 17.0031 65.3683 17.8898 65.5013L19.9525 65.6879M43.0244 78.8573C41.0644 79.5712 38.9673 79.8289 36.8927 79.6105C34.8181 79.3922 32.8206 78.7036 31.0521 77.5973C24.4954 73.7006 21.7515 65.7113 24.9225 59.7519C25.9633 57.7914 27.5863 56.2018 29.5681 55.2019" stroke="#FFC11A" stroke-width="2.33333" stroke-linecap="round" stroke-linejoin="round"/>
<path d="M72.2465 54.6911C82.1282 51.4034 92.2619 48.5428 99.3482 40.5978M43.3412 60.4731C50.4694 59.9632 57.53 58.7518 64.4205 56.8564M24.7562 38.3274L31.0469 47.2104" stroke="#FFC11A" stroke-width="2.33333" stroke-linecap="round" stroke-linejoin="round"/>
</svg>
